<?xml version="1.0" encoding="UTF-8" standalone="no"?>
<!DOCTYPE svg PUBLIC "-//W3C//DTD SVG 1.1//EN"
 "http://www.w3.org/Graphics/SVG/1.1/DTD/svg11.dtd">
<!-- Generated by graphviz version 2.38.0 (20140413.2041)
 -->
<!-- Title: %3 Pages: 1 -->
<svg width="315pt" height="521pt"
 viewBox="0.00 0.00 314.50 521.00" xmlns="http://www.w3.org/2000/svg" xmlns:xlink="http://www.w3.org/1999/xlink">
<g id="graph0" class="graph" transform="scale(1 1) rotate(0) translate(4 517)">
<title>%3</title>
<polygon fill="white" stroke="none" points="-4,4 -4,-517 310.5,-517 310.5,4 -4,4"/>
<!-- Image -->
<g id="node1" class="node"><title>Image</title>
<polygon fill="none" stroke="black" stroke-width="2" points="211,-513 149,-513 149,-477 211,-477 211,-513"/>
<text text-anchor="middle" x="180" y="-491.3" font-family="Verdana" font-size="14.00">Image</text>
</g>
<!-- Grayscaling -->
<g id="node2" class="node"><title>Grayscaling</title>
<polygon fill="none" stroke="black" stroke-width="2" points="177.5,-458 76.5,-458 76.5,-422 177.5,-422 177.5,-458"/>
<text text-anchor="middle" x="127" y="-436.3" font-family="Verdana" font-size="14.00">Grayscaling</text>
</g>
<!-- Image&#45;&gt;Grayscaling -->
<g id="edge1" class="edge"><title>Image&#45;&gt;Grayscaling</title>
<path fill="none" stroke="black" d="M162.939,-476.939C159.251,-473.251 155.282,-469.282 151.375,-465.375"/>
<polygon fill="black" stroke="black" points="153.575,-462.626 144.029,-458.029 148.626,-467.575 153.575,-462.626"/>
</g>
<!-- RGB ⇒ HSV -->
<g id="node12" class="node"><title>RGB ⇒ HSV</title>
<polygon fill="none" stroke="black" stroke-width="2" points="256,-289 156,-289 156,-253 256,-253 256,-289"/>
<text text-anchor="middle" x="206" y="-267.3" font-family="Verdana" font-size="14.00">RGB ⇒ HSV</text>
</g>
<!-- Image&#45;&gt;RGB ⇒ HSV -->
<g id="edge8" class="edge"><title>Image&#45;&gt;RGB ⇒ HSV</title>
<path fill="none" stroke="black" d="M193.305,-476.869C199.702,-466.955 206,-453.914 206,-441 206,-441 206,-441 206,-326 206,-317.299 206,-307.809 206,-299.246"/>
<polygon fill="black" stroke="black" points="209.5,-299.025 206,-289.025 202.5,-299.025 209.5,-299.025"/>
</g>
<!-- Histogram Equalization -->
<g id="node3" class="node"><title>Histogram Equalization</title>
<polygon fill="none" stroke="black" stroke-width="2" points="178,-403 74,-403 74,-365 178,-365 178,-403"/>
<text text-anchor="middle" x="126" y="-387.8" font-family="Verdana" font-size="14.00">Histogram</text>
<text text-anchor="middle" x="126" y="-372.8" font-family="Verdana" font-size="14.00">Equalization</text>
</g>
<!-- Grayscaling&#45;&gt;Histogram Equalization -->
<g id="edge2" class="edge"><title>Grayscaling&#45;&gt;Histogram Equalization</title>
<path fill="none" stroke="black" d="M126.684,-421.914C126.634,-419.226 126.581,-416.385 126.528,-413.522"/>
<polygon fill="black" stroke="black" points="130.023,-413.215 126.339,-403.282 123.024,-413.345 130.023,-413.215"/>
</g>
<!-- Gaussian Blur -->
<g id="node4" class="node"><title>Gaussian Blur</title>
<polygon fill="none" stroke="black" stroke-width="2" points="169,-346 87,-346 87,-308 169,-308 169,-346"/>
<text text-anchor="middle" x="128" y="-330.8" font-family="Verdana" font-size="14.00">Gaussian</text>
<text text-anchor="middle" x="128" y="-315.8" font-family="Verdana" font-size="14.00">Blur</text>
</g>
<!-- Histogram Equalization&#45;&gt;Gaussian Blur -->
<g id="edge3" class="edge"><title>Histogram Equalization&#45;&gt;Gaussian Blur</title>
<path fill="none" stroke="black" d="M126.655,-364.991C126.754,-362.265 126.858,-359.398 126.963,-356.516"/>
<polygon fill="black" stroke="black" points="130.471,-356.358 127.337,-346.238 123.476,-356.104 130.471,-356.358"/>
</g>
<!-- Blending -->
<g id="node5" class="node"><title>Blending</title>
<polygon fill="none" stroke="black" stroke-width="2" points="99,-289 19,-289 19,-253 99,-253 99,-289"/>
<text text-anchor="middle" x="59" y="-267.3" font-family="Verdana" font-size="14.00">Blending</text>
</g>
<!-- Histogram Equalization&#45;&gt;Blending -->
<g id="edge5" class="edge"><title>Histogram Equalization&#45;&gt;Blending</title>
<path fill="none" stroke="black" d="M96.1996,-364.941C89.3789,-359.589 82.7478,-353.204 78,-346 68.8375,-332.097 64.0922,-314.036 61.6353,-299.237"/>
<polygon fill="black" stroke="black" points="65.0748,-298.561 60.2202,-289.144 58.1426,-299.533 65.0748,-298.561"/>
</g>
<!-- Gaussian Blur&#45;&gt;Blending -->
<g id="edge4" class="edge"><title>Gaussian Blur&#45;&gt;Blending</title>
<path fill="none" stroke="black" d="M104.64,-307.718C99.611,-303.782 94.2284,-299.57 88.9873,-295.468"/>
<polygon fill="black" stroke="black" points="90.9709,-292.576 80.9387,-289.169 86.6567,-298.089 90.9709,-292.576"/>
</g>
<!-- Bilateral Filter -->
<g id="node6" class="node"><title>Bilateral Filter</title>
<polygon fill="none" stroke="black" stroke-width="2" points="118,-234 0,-234 0,-198 118,-198 118,-234"/>
<text text-anchor="middle" x="59" y="-212.3" font-family="Verdana" font-size="14.00">Bilateral Filter</text>
</g>
<!-- Blending&#45;&gt;Bilateral Filter -->
<g id="edge6" class="edge"><title>Blending&#45;&gt;Bilateral Filter</title>
<path fill="none" stroke="black" d="M59,-252.939C59,-250.102 59,-247.099 59,-244.086"/>
<polygon fill="black" stroke="black" points="62.5001,-244.029 59,-234.029 55.5001,-244.029 62.5001,-244.029"/>
</g>
<!-- Gamma Correction -->
<g id="node7" class="node"><title>Gamma Correction</title>
<polygon fill="none" stroke="black" stroke-width="2" points="104.5,-179 13.5,-179 13.5,-141 104.5,-141 104.5,-179"/>
<text text-anchor="middle" x="59" y="-163.8" font-family="Verdana" font-size="14.00">Gamma</text>
<text text-anchor="middle" x="59" y="-148.8" font-family="Verdana" font-size="14.00">Correction</text>
</g>
<!-- Bilateral Filter&#45;&gt;Gamma Correction -->
<g id="edge7" class="edge"><title>Bilateral Filter&#45;&gt;Gamma Correction</title>
<path fill="none" stroke="black" d="M59,-197.914C59,-195.226 59,-192.385 59,-189.522"/>
<polygon fill="black" stroke="black" points="62.5001,-189.282 59,-179.282 55.5001,-189.282 62.5001,-189.282"/>
</g>
<!-- HSV ⇒ RGB -->
<g id="node13" class="node"><title>HSV ⇒ RGB</title>
<polygon fill="none" stroke="black" stroke-width="2" points="223,-112 123,-112 123,-76 223,-76 223,-112"/>
<text text-anchor="middle" x="173" y="-90.3" font-family="Verdana" font-size="14.00">HSV ⇒ RGB</text>
</g>
<!-- Gamma Correction&#45;&gt;HSV ⇒ RGB -->
<g id="edge15" class="edge"><title>Gamma Correction&#45;&gt;HSV ⇒ RGB</title>
<path fill="none" stroke="black" d="M91.3629,-140.831C104.539,-133.434 119.889,-124.817 133.7,-117.063"/>
<polygon fill="black" stroke="black" points="135.509,-120.061 142.516,-112.114 132.082,-113.957 135.509,-120.061"/>
<text text-anchor="middle" x="144.5" y="-124" font-family="Verdana" font-size="10.00"> &#160;Value</text>
</g>
<!-- Result -->
<g id="node14" class="node"><title>Result</title>
<polygon fill="none" stroke="black" stroke-width="2" points="131.5,-36 70.5,-36 70.5,-0 131.5,-0 131.5,-36"/>
<text text-anchor="middle" x="101" y="-14.3" font-family="Verdana" font-size="14.00">Result</text>
</g>
<!-- Gamma Correction&#45;&gt;Result -->
<g id="edge17" class="edge"><title>Gamma Correction&#45;&gt;Result</title>
<path fill="none" stroke="black" d="M61.9216,-140.94C64.9018,-123.956 70.0699,-97.9329 77,-76 80.2173,-65.8177 84.557,-54.9441 88.6614,-45.4532"/>
<polygon fill="black" stroke="black" points="91.9331,-46.7097 92.7966,-36.1501 85.5365,-43.8664 91.9331,-46.7097"/>
<text text-anchor="middle" x="95.5" y="-97" font-family="Verdana" font-size="10.00"> &#160;Pencil</text>
<text text-anchor="middle" x="95.5" y="-86" font-family="Verdana" font-size="10.00">Sketch</text>
</g>
<!-- Scale
Hue -->
<g id="node8" class="node"><title>Scale
Hue</title>
<polygon fill="none" stroke="black" stroke-width="2" points="306.5,-179 251.5,-179 251.5,-141 306.5,-141 306.5,-179"/>
<text text-anchor="middle" x="279" y="-163.8" font-family="Verdana" font-size="14.00">Scale</text>
<text text-anchor="middle" x="279" y="-148.8" font-family="Verdana" font-size="14.00">Hue</text>
</g>
<!-- Scale
Hue&#45;&gt;HSV ⇒ RGB -->
<g id="edge13" class="edge"><title>Scale
Hue&#45;&gt;HSV ⇒ RGB</title>
<path fill="none" stroke="black" d="M263.204,-140.731C256.565,-133.865 248.429,-126.418 240,-121 237.54,-119.419 234.969,-117.909 232.328,-116.471"/>
<polygon fill="black" stroke="black" points="233.644,-113.216 223.136,-111.859 230.505,-119.472 233.644,-113.216"/>
<text text-anchor="middle" x="271" y="-124" font-family="Verdana" font-size="10.00"> &#160;&#160;&#160;Hue</text>
</g>
<!-- Exponentiate
Saturation -->
<g id="node9" class="node"><title>Exponentiate
Saturation</title>
<polygon fill="none" stroke="black" stroke-width="2" points="233,-179 123,-179 123,-141 233,-141 233,-179"/>
<text text-anchor="middle" x="178" y="-163.8" font-family="Verdana" font-size="14.00">Exponentiate</text>
<text text-anchor="middle" x="178" y="-148.8" font-family="Verdana" font-size="14.00">Saturation</text>
</g>
<!-- Exponentiate
Saturation&#45;&gt;HSV ⇒ RGB -->
<g id="edge14" class="edge"><title>Exponentiate
Saturation&#45;&gt;HSV ⇒ RGB</title>
<path fill="none" stroke="black" d="M176.581,-140.831C176.129,-135.055 175.62,-128.534 175.13,-122.261"/>
<polygon fill="black" stroke="black" points="178.605,-121.811 174.337,-112.114 171.627,-122.356 178.605,-121.811"/>
<text text-anchor="middle" x="206" y="-124" font-family="Verdana" font-size="10.00"> &#160;Saturation</text>
</g>
<!-- Hue -->
<g id="node10" class="node"><title>Hue</title>
<polygon fill="none" stroke="black" stroke-width="2" points="303,-234 249,-234 249,-198 303,-198 303,-234"/>
<text text-anchor="middle" x="276" y="-212.3" font-family="Verdana" font-size="14.00">Hue</text>
</g>
<!-- Hue&#45;&gt;Scale
Hue -->
<g id="edge11" class="edge"><title>Hue&#45;&gt;Scale
Hue</title>
<path fill="none" stroke="black" d="M276.949,-197.914C277.099,-195.226 277.256,-192.385 277.415,-189.522"/>
<polygon fill="black" stroke="black" points="280.924,-189.461 277.984,-179.282 273.935,-189.072 280.924,-189.461"/>
</g>
<!-- Saturation -->
<g id="node11" class="node"><title>Saturation</title>
<polygon fill="none" stroke="black" stroke-width="2" points="228.5,-234 137.5,-234 137.5,-198 228.5,-198 228.5,-234"/>
<text text-anchor="middle" x="183" y="-212.3" font-family="Verdana" font-size="14.00">Saturation</text>
</g>
<!-- Saturation&#45;&gt;Exponentiate
Saturation -->
<g id="edge12" class="edge"><title>Saturation&#45;&gt;Exponentiate
Saturation</title>
<path fill="none" stroke="black" d="M181.418,-197.914C181.169,-195.226 180.906,-192.385 180.641,-189.522"/>
<polygon fill="black" stroke="black" points="184.1,-188.917 179.693,-179.282 177.13,-189.562 184.1,-188.917"/>
</g>
<!-- RGB ⇒ HSV&#45;&gt;Hue -->
<g id="edge9" class="edge"><title>RGB ⇒ HSV&#45;&gt;Hue</title>
<path fill="none" stroke="black" d="M228.534,-252.939C233.904,-248.872 239.725,-244.465 245.391,-240.176"/>
<polygon fill="black" stroke="black" points="247.649,-242.856 253.508,-234.029 243.423,-237.275 247.649,-242.856"/>
</g>
<!-- RGB ⇒ HSV&#45;&gt;Saturation -->
<g id="edge10" class="edge"><title>RGB ⇒ HSV&#45;&gt;Saturation</title>
<path fill="none" stroke="black" d="M198.596,-252.939C197.283,-249.913 195.888,-246.698 194.493,-243.483"/>
<polygon fill="black" stroke="black" points="197.582,-241.809 190.39,-234.029 191.16,-244.596 197.582,-241.809"/>
</g>
<!-- HSV ⇒ RGB&#45;&gt;Result -->
<g id="edge16" class="edge"><title>HSV ⇒ RGB&#45;&gt;Result</title>
<path fill="none" stroke="black" d="M156.301,-75.8369C146.941,-66.217 135.11,-54.057 124.795,-43.4555"/>
<polygon fill="black" stroke="black" points="127.091,-40.7965 117.609,-36.07 122.074,-45.678 127.091,-40.7965"/>
<text text-anchor="middle" x="186.5" y="-59" font-family="Verdana" font-size="10.00"> &#160;Colored Pencil</text>
<text text-anchor="middle" x="186.5" y="-48" font-family="Verdana" font-size="10.00">Sketch</text>
</g>
</g>
</svg>
